<?xml version="1.0" encoding="UTF-8"?>
<svg id="Layer_1" data-name="Layer 1" xmlns="http://www.w3.org/2000/svg" xmlns:xlink="http://www.w3.org/1999/xlink" viewBox="0 0 434.36 451.33">
  <defs>
    <style>
      .cls-1 {
        fill: url(#linear-gradient-2);
      }

      .cls-2 {
        fill: url(#linear-gradient-3);
      }

      .cls-3 {
        fill: url(#linear-gradient);
      }

      .cls-4 {
        fill: url(#linear-gradient-4);
      }
    </style>
    <linearGradient id="linear-gradient" x1="219.12" y1="469.87" x2="215.39" y2=".07" gradientUnits="userSpaceOnUse">
      <stop offset="0" stop-color="#fff"/>
      <stop offset=".22" stop-color="#b4e3f6"/>
      <stop offset=".43" stop-color="#74ccef"/>
      <stop offset=".62" stop-color="#42baea"/>
      <stop offset=".78" stop-color="#1eace6"/>
      <stop offset=".91" stop-color="#08a4e3"/>
      <stop offset="1" stop-color="#00a2e3"/>
    </linearGradient>
    <linearGradient id="linear-gradient-2" x1="199.26" y1="186.09" x2="278.6" y2="45.44" gradientUnits="userSpaceOnUse">
      <stop offset="0" stop-color="#fff" stop-opacity=".8"/>
      <stop offset=".17" stop-color="#f2fafd" stop-opacity=".8"/>
      <stop offset=".47" stop-color="#d0eef7" stop-opacity=".8"/>
      <stop offset=".85" stop-color="#9adbef" stop-opacity=".8"/>
      <stop offset="1" stop-color="#83d3ec" stop-opacity=".8"/>
    </linearGradient>
    <linearGradient id="linear-gradient-3" x1="216.12" y1="475.7" x2="217.83" y2="206.89" gradientUnits="userSpaceOnUse">
      <stop offset="0" stop-color="#fff" stop-opacity="0"/>
      <stop offset=".11" stop-color="#d9eaf8" stop-opacity=".15"/>
      <stop offset=".34" stop-color="#8cc1ea" stop-opacity=".45"/>
      <stop offset=".56" stop-color="#50a1e0" stop-opacity=".69"/>
      <stop offset=".75" stop-color="#2489d8" stop-opacity=".86"/>
      <stop offset=".9" stop-color="#097bd3" stop-opacity=".96"/>
      <stop offset="1" stop-color="#0076d2"/>
    </linearGradient>
    <linearGradient id="linear-gradient-4" x1="118.42" y1="323.82" x2="298.63" y2="164.61" gradientUnits="userSpaceOnUse">
      <stop offset="0" stop-color="#fff"/>
      <stop offset=".15" stop-color="#f4fbfd"/>
      <stop offset=".4" stop-color="#d9f1f9"/>
      <stop offset=".72" stop-color="#aee2f2"/>
      <stop offset="1" stop-color="#83d3ec"/>
    </linearGradient>
  </defs>
  <path class="cls-3" d="m434.36,110.03v231.26c0,60.77-45.17,110.03-100.89,110.03h-46.21c28.94-11.84,48.09-30.2,56.57-39.16,24.59-25.99,35.83-53.86,41.04-67.15,0,0,2.86-7.27,18.82-61.54-.33-.21-9.03-9.66-15.4-9.33-14.4.75-27.69,51.94-32.49,61.55-.71,1.43-1.47,2.94-1.47,2.94-1.62,3.17-2.9,5.5-3.64,6.84,0,0-.29.49-.57,1-2.35,4.2-36.36,52.14-40.48,48.9-3.82-2.99,20.17-48.05,26.44-59.83,0,0,0-.02.02-.03-.38-.15-12.44-6.45-19.62-7.28-10.54-1.21-18.38,8.48-37.62,29.84-30.75,34.14-27.71,28.23-34.21,37.31-9.45,13.16-28.84,40.18-27.38,55.94h-1.64c1.44-15.77-17.95-42.78-27.39-55.94-6.51-9.07-3.46-3.17-34.21-37.31-19.24-21.36-27.08-31.06-37.62-29.84-7.18.84-19.24,7.14-19.62,7.28.02.02.02.03.02.03,6.26,11.78,30.26,56.84,26.44,59.83-4.14,3.23-38.13-44.7-40.48-48.9-.29-.51-.57-1-.57-1-.74-1.35-2.02-3.67-3.64-6.84,0,0-.78-1.51-1.49-2.94-4.78-9.61-18.1-60.8-32.49-61.55-6.38-.33-15.06,9.12-15.39,9.33,15.96,54.27,18.82,61.54,18.82,61.54,5.2,13.29,16.44,41.16,41.04,67.15,8.48,8.96,27.63,27.31,56.57,39.16h-44.74c-55.72,0-100.89-49.26-100.89-110.03V110.03C0,49.27,45.17,0,100.89,0h232.58c55.72,0,100.89,49.27,100.89,110.03Z"/>
  <path class="cls-1" d="m374.85,155.6c0,5.12-1.34,10.3-4.12,14.9-7.55,12.45-22.94,15.86-34.36,7.63l-117.75-84.96-120.92,87.57c-4.23,3.05-8.98,4.51-13.69,4.51-8.03,0-15.91-4.25-20.68-12.09-7.58-12.44-4.47-29.22,6.93-37.49l37.61-27.23v-48.76h34.19v24l56.54-40.93,10.86-7.86c.36-.26.72-.51,1.1-.74,6.78-2.23,14.4-1.26,20.77,3.35l15.25,11.01,117.15,84.52c7.21,5.2,11.12,13.8,11.12,22.57Z"/>
  <path class="cls-2" d="m434.36,305.35v35.94c0,60.77-45.17,110.03-100.89,110.03h-46.21c28.94-11.84,48.09-30.2,56.57-39.16,24.59-25.99,35.83-53.86,41.04-67.15,0,0,2.86-7.27,18.82-61.54-.33-.21-9.03-9.66-15.4-9.33-14.4.75-27.69,51.94-32.49,61.55-.71,1.43-1.47,2.94-1.47,2.94-1.62,3.17-2.9,5.5-3.64,6.84,0,0-.29.49-.57,1-2.35,4.2-36.36,52.14-40.48,48.9-3.82-2.99,20.17-48.05,26.44-59.83,0,0,0-.02.02-.03-.38-.15-12.44-6.45-19.62-7.28-10.54-1.21-18.38,8.48-37.62,29.84-30.75,34.14-27.71,28.23-34.21,37.31-9.45,13.16-28.84,40.18-27.38,55.94h-1.64c1.44-15.77-17.95-42.78-27.39-55.94-6.51-9.07-3.46-3.17-34.21-37.31-19.24-21.36-27.08-31.06-37.62-29.84-7.18.84-19.24,7.14-19.62,7.28.02.02.02.03.02.03,6.26,11.78,30.26,56.84,26.44,59.83-4.14,3.23-38.13-44.7-40.48-48.9-.29-.51-.57-1-.57-1-.74-1.35-2.02-3.67-3.64-6.84,0,0-.78-1.51-1.49-2.94-4.78-9.61-18.1-60.8-32.49-61.55-6.38-.33-15.06,9.12-15.39,9.33,15.96,54.27,18.82,61.54,18.82,61.54,5.2,13.29,16.44,41.16,41.04,67.15,8.48,8.96,27.63,27.31,56.57,39.16h-44.74c-55.72,0-100.89-49.26-100.89-110.03v-64.44c6.56-17.54,18.79-41.18,41.55-56.81,28.11-19.33,57.4-16.26,99.19-11.19,2.47.3,4.87.61,7.22.95,70.97,9.99,83.95,33.55,135.18,36.12,4.14.23,8.51.3,13.21.21,36.61-.64,48.27-9.96,75.24,0,6.26,2.31,46.1,17.8,62.77,59.21Z"/>
  <polygon class="cls-4" points="283.14 209.81 283.14 267.64 241.25 267.64 241.25 313.32 188.24 313.32 188.24 267.64 146.35 267.64 146.35 209.81 188.24 209.81 188.24 164.12 241.25 164.12 241.25 209.81 283.14 209.81"/>
</svg>